HIERARCHY
ROOT Hips
{
	OFFSET 49.633900 -0.382569 94.308197
	CHANNELS 6 Xposition Yposition Zposition Xrotation Yrotation Zrotation
	JOINT spine
	{
		OFFSET 0.000000 -0.448574 7.800591
		CHANNELS 3 Xrotation Yrotation Zrotation
		JOINT spine1
		{
			OFFSET 0.000000 -0.000002 10.136398
			CHANNELS 3 Xrotation Yrotation Zrotation
			JOINT spine2
			{
				OFFSET 0.000000 -0.000002 9.712509
				CHANNELS 3 Xrotation Yrotation Zrotation
				JOINT Neck
				{
					OFFSET 0.000000 -1.188874 24.936104
					CHANNELS 3 Xrotation Yrotation Zrotation
					JOINT Head
					{
						OFFSET 0.000000 -0.000001 7.533844
						CHANNELS 3 Xrotation Yrotation Zrotation
						End Site
						{
							OFFSET 0.000000 6.014017 18.236099
						}
					}
				}
				JOINT RightShoulder
				{
					OFFSET -4.089649 0.569455 10.488808
					CHANNELS 3 Xrotation Yrotation Zrotation
					JOINT RightArm
					{
						OFFSET 0.000000 -0.000002 13.757004
						CHANNELS 3 Xrotation Yrotation Zrotation
						JOINT RightArmRoll
						{
							OFFSET 0.000000 -0.000001 6.944778
							CHANNELS 3 Xrotation Yrotation Zrotation
							JOINT RightForeArm
							{
								OFFSET 0.000000 -0.000003 20.227692
								CHANNELS 3 Xrotation Yrotation Zrotation
								JOINT RightForeArmRoll
								{
									OFFSET 0.000000 -0.000001 7.793121
									CHANNELS 3 Xrotation Yrotation Zrotation
									JOINT RightHand
									{
										OFFSET 0.000000 -0.000003 15.639099
										CHANNELS 3 Xrotation Yrotation Zrotation
										End Site
										{
											OFFSET 0.000000 0.000000 0.100006
										}
									}
								}
							}
						}
					}
				}
				JOINT LeftShoulder
				{
					OFFSET 4.089649 0.569455 10.488808
					CHANNELS 3 Xrotation Yrotation Zrotation
					JOINT LeftArm
					{
						OFFSET 0.000000 -0.000002 13.757004
						CHANNELS 3 Xrotation Yrotation Zrotation
						JOINT LeftArmRoll
						{
							OFFSET 0.000000 -0.000001 6.944778
							CHANNELS 3 Xrotation Yrotation Zrotation
							JOINT LeftForeArm
							{
								OFFSET 0.000000 -0.000003 20.227692
								CHANNELS 3 Xrotation Yrotation Zrotation
								JOINT LeftForeArmRoll
								{
									OFFSET 0.000000 -0.000001 7.793121
									CHANNELS 3 Xrotation Yrotation Zrotation
									JOINT LeftHand
									{
										OFFSET 0.000000 -0.000003 15.639099
										CHANNELS 3 Xrotation Yrotation Zrotation
										End Site
										{
											OFFSET 0.000000 0.000000 0.100006
										}
									}
								}
							}
						}
					}
				}
			}
		}
	}
	JOINT RightUpLeg
	{
		OFFSET -6.914158 1.063580 -1.267883
		CHANNELS 3 Xrotation Yrotation Zrotation
		JOINT RightUpLegRoll
		{
			OFFSET 0.000000 -0.000003 18.337799
			CHANNELS 3 Xrotation Yrotation Zrotation
			JOINT RightLeg
			{
				OFFSET 0.000000 0.000004 -22.708496
				CHANNELS 3 Xrotation Yrotation Zrotation
				JOINT RightLegRoll
				{
					OFFSET 0.000000 -0.000004 22.782799
					CHANNELS 3 Xrotation Yrotation Zrotation
					JOINT RightFoot
					{
						OFFSET 0.000000 -0.000003 18.962898
						CHANNELS 3 Xrotation Yrotation Zrotation
						JOINT RightToeBase
						{
							OFFSET 0.000000 -0.000003 15.852005
							CHANNELS 3 Xrotation Yrotation Zrotation
							End Site
							{
								OFFSET 0.006718 0.884892 7.677002
							}
						}
					}
				}
			}
		}
	}
	JOINT LeftUpLeg
	{
		OFFSET 6.914158 1.063580 -1.267883
		CHANNELS 3 Xrotation Yrotation Zrotation
		JOINT LeftUpLegRoll
		{
			OFFSET 0.000000 -0.000003 18.337898
			CHANNELS 3 Xrotation Yrotation Zrotation
			JOINT LeftLeg
			{
				OFFSET 0.000000 -0.000004 22.708397
				CHANNELS 3 Xrotation Yrotation Zrotation
				JOINT LeftLegRoll
				{
					OFFSET 0.000000 -0.000004 22.993408
					CHANNELS 3 Xrotation Yrotation Zrotation
					JOINT LeftFoot
					{
						OFFSET 0.000000 -0.000003 18.752197
						CHANNELS 3 Xrotation Yrotation Zrotation
						JOINT LeftToeBase
						{
							OFFSET 0.000000 -0.000003 15.852005
							CHANNELS 3 Xrotation Yrotation Zrotation
							End Site
							{
								OFFSET -0.030113 0.884892 7.677017
							}
						}
					}
				}
			}
		}
	}
}
MOTION
Frames: 10
Frame Time: 0.041667
49.848701 -8.334505 98.659393 -1.253211 1.056897 -1.116070 -2.234812 -0.092741 0.208201 -0.466462 -0.191525 0.413638 1.178606 -0.186556 0.415902 10.078526 8.098408 -1.435210 -10.233829 -10.860602 -1.854592 -14.960915 -36.728567 -17.006246 21.413621 -45.653001 71.644661 0.000001 0.000023 -0.000002 50.550203 0.622076 -0.252605 0.000009 0.000005 -3.000002 -5.000155 -7.998970 0.000151 -14.745173 38.332582 16.779922 -176.422721 128.060118 130.833681 -0.000000 -0.000007 -0.000003 58.549331 -3.322643 0.655250 -0.000004 -0.000010 2.999982 -5.000283 7.998742 -0.000166 -5.794840 194.632114 3.454243 -179.999991 0.000004 -1.524998 167.480063 2.219004 -0.323382 0.000002 -0.000003 -0.299925 64.612210 7.117670 1.886900 25.454729 -7.355621 -0.002714 -6.406641 163.089153 -2.571550 0.000011 -0.000003 -1.181230 -19.676339 2.894759 0.956806 -0.000004 0.000003 -0.309222 69.527091 -6.927718 -2.000122 25.452003 7.355625 0.006359 
49.893902 -8.458503 98.931099 -1.325445 1.006741 -1.176328 -2.233503 -0.094264 0.207819 -0.463831 -0.194561 0.412839 1.181236 -0.189602 0.415140 10.357301 8.410500 -1.457191 -10.440717 -11.107564 -1.890815 -14.813955 -36.927667 -16.814353 21.218521 -46.475042 71.175202 0.000001 0.000023 0.000000 50.426132 0.594662 -0.278291 0.000010 0.000006 -2.999999 -5.000151 -7.998970 0.000152 -14.526766 38.868226 16.498462 -177.455158 127.790667 131.866733 0.000001 -0.000008 0.000004 58.248161 -3.287718 0.691927 -0.000003 -0.000011 2.999983 -5.000281 7.998743 -0.000167 -5.725574 194.508365 3.439198 -179.999991 0.000006 -1.521992 167.455065 2.180717 -0.318885 0.000002 -0.000003 -0.300513 64.583147 7.114062 1.896579 25.456950 -7.355616 0.000000 -6.212581 163.279210 -2.480506 0.000010 -0.000005 -1.171860 -19.472992 2.936319 0.949746 -0.000004 0.000004 -0.305712 69.598248 -6.918628 -2.018337 25.456849 7.355624 0.000011 
49.841202 -8.455482 99.097900 -1.366086 0.966883 -1.222784 -2.237383 -0.097358 0.205099 -0.471592 -0.200698 0.407320 1.173477 -0.195805 0.409695 10.619246 8.716197 -1.481516 -10.647253 -11.354489 -1.930235 -14.674982 -37.136087 -16.634009 21.015205 -47.275387 70.700975 0.000002 0.000023 -0.000000 50.310145 0.564534 -0.300580 0.000007 0.000004 -2.999999 -5.000153 -7.998975 0.000150 -14.316614 39.383137 16.231887 -178.464538 127.510124 132.909402 0.000001 -0.000007 0.000001 57.918597 -3.248714 0.727319 -0.000003 -0.000010 2.999982 -5.000282 7.998740 -0.000166 -5.718194 194.367158 3.400689 -179.999991 0.000006 -1.515997 167.369442 2.139985 -0.316580 0.000002 -0.000003 -0.301047 64.554884 7.111918 1.903737 25.456953 -7.355615 0.000001 -6.091799 163.451795 -2.394997 0.000011 -0.000003 -1.162840 -19.320630 2.984132 0.947154 -0.000005 0.000003 -0.300704 69.650205 -6.911406 -2.033594 25.456955 7.355617 -0.000012 
49.893101 -8.510294 99.332497 -1.380443 0.934399 -1.258074 -2.245523 -0.102006 0.200405 -0.487878 -0.209907 0.397804 1.157188 -0.205126 0.400290 10.871484 9.031043 -1.509279 -10.860519 -11.612421 -1.974959 -14.539582 -37.350640 -16.459559 20.803298 -48.059680 70.214099 0.000002 0.000023 -0.000000 50.193168 0.532791 -0.320585 0.000008 0.000003 -2.999999 -5.000148 -7.998972 0.000152 -14.110907 39.893550 15.974931 -179.471635 127.234062 133.977330 0.000000 -0.000007 -0.000002 57.563550 -3.207283 0.763667 -0.000003 -0.000013 2.999978 -5.000283 7.998745 -0.000166 -5.770809 194.210582 3.342905 -179.999991 0.000005 -1.506994 167.210585 2.097683 -0.315940 0.000002 0.000000 -0.299017 64.540486 7.109809 1.909703 25.456952 -7.355615 0.000002 -6.039031 163.611513 -2.314291 0.000010 -0.000005 -1.153360 -19.226752 3.036579 0.948185 -0.000004 0.000002 -0.296771 69.704867 -6.904315 -2.048315 25.456955 7.355615 -0.000011 
49.983395 -8.634843 99.515411 -1.371415 0.908500 -1.283261 -2.257417 -0.108037 0.193975 -0.511668 -0.221847 0.384767 1.133398 -0.217224 0.387397 11.114715 9.353201 -1.540349 -11.079194 -11.879483 -2.024745 -14.407511 -37.570091 -16.290563 20.582857 -48.829483 69.715864 0.000002 0.000023 -0.000000 50.074511 0.499786 -0.338593 0.000011 0.000001 -3.000002 -5.000153 -7.998970 0.000150 -13.909193 40.398913 15.726572 -180.476889 126.962439 135.067933 0.000001 -0.000007 0.000002 57.183372 -3.163731 0.800651 -0.000003 -0.000011 2.999977 -5.000281 7.998745 -0.000163 -5.876830 194.039800 3.268431 -179.999991 0.000006 -1.495997 166.986391 2.053903 -0.316417 0.000002 0.000000 -0.294687 64.538587 7.107727 1.914755 25.456950 -7.355615 0.000001 -6.047378 163.760042 -2.238332 0.000011 -0.000004 -1.143520 -19.186440 3.093140 0.952587 -0.000005 0.000003 -0.293819 69.761606 -6.897391 -2.062544 25.456955 7.355614 -0.000012 
49.948597 -8.603867 99.736610 -1.341871 0.888429 -1.299420 -2.272543 -0.115283 0.186044 -0.541945 -0.236180 0.368685 1.103119 -0.231748 0.371487 11.349827 9.680820 -1.574600 -11.302447 -12.153488 -2.079354 -14.278574 -37.793373 -16.126630 20.354321 -49.586729 69.208114 0.000002 0.000023 -0.000000 49.953753 0.465866 -0.354896 0.000010 0.000003 -2.999999 -5.000152 -7.998970 0.000150 -13.711102 40.898558 15.485835 -181.480380 126.695037 136.178590 0.000001 -0.000007 -0.000002 56.778611 -3.118306 0.837871 -0.000009 -0.000012 2.999978 -5.000282 7.998742 -0.000165 -6.029627 193.855932 3.179860 -179.999991 0.000006 -1.484004 166.704687 2.008722 -0.318433 0.000003 -0.000003 -0.288319 64.547733 7.105655 1.918986 25.456952 -7.355615 0.000002 -6.109931 163.900170 -2.167068 0.000010 -0.000004 -1.133389 -19.194695 3.153296 0.960115 -0.000005 0.000004 -0.291741 69.819983 -6.890614 -2.076204 25.456953 7.355614 -0.000012 
49.668701 -8.072289 99.802002 -1.294711 0.873453 -1.307650 -2.290414 -0.123572 0.176849 -0.577687 -0.252564 0.350033 1.067380 -0.248356 0.353033 11.577296 10.012110 -1.611837 -11.528824 -12.432500 -2.138403 -14.152825 -38.019404 -15.967556 20.118011 -50.332969 68.692408 0.000002 0.000023 -0.000002 49.830017 0.431380 -0.369778 0.000009 0.000000 -3.000001 -5.000151 -7.998972 0.000151 -13.515934 41.392073 15.251544 -182.481959 126.431569 137.306337 0.000001 -0.000007 0.000000 56.349733 -3.071282 0.875025 -0.000003 -0.000010 2.999979 -5.000278 7.998741 -0.000164 -6.222675 193.662105 3.079541 -179.999991 0.000005 -1.469005 166.373450 1.963181 -0.322190 0.000002 -0.000003 -0.280173 64.566461 7.103605 1.922504 25.456952 -7.355617 0.000001 -6.219834 164.033687 -2.100225 0.000010 -0.000004 -1.123060 -19.246710 3.216518 0.970538 -0.000004 0.000004 -0.290442 69.879392 -6.884073 -2.089154 25.456952 7.355618 -0.000014 
49.750595 -8.257027 100.031998 -1.232800 0.862854 -1.309082 -2.310507 -0.132736 0.166628 -0.617876 -0.270661 0.329288 1.027190 -0.266701 0.332507 11.798081 10.345111 -1.651895 -11.757372 -12.714559 -2.201576 -14.029898 -38.246932 -15.812848 19.874978 -51.069847 68.171032 0.000002 0.000023 -0.000000 49.702826 0.396680 -0.383528 0.000008 0.000001 -3.000002 -5.000149 -7.998973 0.000150 -13.323387 41.878653 15.022755 -183.481161 126.171489 138.447880 -0.000000 -0.000008 0.000003 55.897360 -3.022880 0.911721 -0.000004 -0.000009 2.999985 -5.000282 7.998747 -0.000170 -6.449332 193.457458 2.970196 -179.999991 0.000006 -1.452994 166.000508 1.916381 -0.327313 0.000002 -0.000003 -0.270520 64.593304 7.101548 1.925484 25.456948 -7.355611 0.000002 -6.370313 164.160441 -2.037244 0.000010 -0.000004 -1.112640 -19.337377 3.282251 0.983590 -0.000005 0.000005 -0.289819 69.939409 -6.877703 -2.101599 25.456952 7.355616 -0.000009 
49.781597 -8.272546 100.214996 -1.159036 0.855920 -1.304814 -2.332318 -0.142603 0.155618 -0.661492 -0.290134 0.306927 0.983581 -0.286440 0.310381 12.012636 10.678017 -1.694536 -11.986895 -12.997631 -2.268431 -13.909866 -38.474879 -15.662329 19.625633 -51.799246 67.645565 0.000001 0.000023 -0.000003 49.571549 0.362117 -0.396427 0.000009 0.000004 -3.000002 -5.000149 -7.998974 0.000151 -13.132788 42.357671 14.798284 -184.477358 125.914128 139.600037 0.000000 -0.000007 -0.000002 55.421839 -2.973339 0.947600 -0.000007 -0.000010 2.999980 -5.000281 7.998745 -0.000164 -6.703089 193.245108 2.854014 -179.999991 0.000005 -1.436001 165.593770 1.869360 -0.333913 0.000003 -0.000001 -0.259620 64.626908 7.099443 1.928118 25.456953 -7.355614 0.000001 -6.554526 164.283248 -1.977815 0.000009 -0.000005 -1.102190 -19.461786 3.349971 0.999020 -0.000005 0.000003 -0.289771 69.999330 -6.871664 -2.113315 25.456957 7.355613 -0.000011 
49.761795 -8.290426 100.409004 -1.076309 0.851942 -1.295985 -2.355319 -0.153005 0.144057 -0.707519 -0.310644 0.283430 0.937557 -0.307231 0.287131 12.221797 11.009051 -1.739593 -12.215991 -13.279711 -2.338425 -13.792382 -38.702092 -15.515547 19.371053 -52.522966 67.118213 0.000002 0.000023 -0.000004 49.435499 0.328065 -0.408751 0.000009 0.000004 -2.999999 -5.000154 -7.998973 0.000152 -12.943620 42.828561 14.577070 -185.469702 125.658637 140.759243 -0.000001 -0.000007 -0.000003 54.923802 -2.922855 0.982321 -0.000009 -0.000012 2.999979 -5.000281 7.998744 -0.000169 -6.977387 193.026173 2.733333 -179.999991 0.000005 -1.417998 165.161119 1.823146 -0.341076 0.000002 -0.000000 -0.247737 64.665916 7.097309 1.930395 25.456955 -7.355613 -0.000000 -6.765691 164.402995 -1.921346 0.000010 -0.000006 -1.091830 -19.615040 3.419138 1.016544 -0.000004 0.000004 -0.290197 70.058726 -6.865983 -2.124240 25.456957 7.355618 -0.000011 
